<svg id="Capa_1" enable-background="new 0 0 510 510" height="512" viewBox="0 0 510 510" width="512" xmlns="http://www.w3.org/2000/svg"><g><path d="m435.312 74.688c-48.163-48.164-112.199-74.688-180.312-74.688s-132.149 26.524-180.312 74.688c-48.164 48.163-74.688 112.199-74.688 180.312s26.524 132.149 74.688 180.312c48.163 48.164 112.199 74.688 180.312 74.688s132.149-26.524 180.312-74.688c48.164-48.163 74.688-112.199 74.688-180.312s-26.524-132.149-74.688-180.312zm-405.312 180.312c0-54.469 19.459-104.476 51.786-143.443l68.214 68.514v197.691c0 23.29 18.948 42.238 42.238 42.238h125.525c19.269 0 35.553-12.975 40.606-30.643l39.313 39.487c-38.857 31.949-88.567 51.156-142.682 51.156-124.065 0-225-100.935-225-225zm150 90h134.206l15.794 15.864v16.898c0 6.748-5.489 12.238-12.237 12.238h-125.525c-6.748 0-12.238-5.49-12.238-12.238zm150-30h-3.329l-134.408-135h137.737zm0-165h-150v-17.762c0-6.748 5.49-12.238 12.238-12.238h125.525c6.748 0 12.237 5.49 12.237 12.238zm-45.663 165h-104.337v-104.797zm135.208 93.284-59.545-59.808v-216.238c0-23.29-18.947-42.238-42.237-42.238h-125.525c-23.29 0-42.238 18.948-42.238 42.238v5.313l-47.56-47.77c40.13-37.083 93.74-59.781 152.56-59.781 124.065 0 225 100.935 225 225 0 59.174-22.973 113.075-60.455 153.284z"/></g></svg>